<?xml version="1.0" encoding="UTF-8"?>
<svg width="25px" height="20px" viewBox="0 0 25 20" version="1.1" xmlns="http://www.w3.org/2000/svg" xmlns:xlink="http://www.w3.org/1999/xlink">
    <!-- Generator: Sketch 59.1 (86144) - https://sketch.com -->
    <title>ic_karma_simple</title>
    <desc>Created with Sketch.</desc>
    <g id="flutter-earning" stroke="none" stroke-width="1" fill="none" fill-rule="evenodd">
        <g id="Artboard-Copy-19" transform="translate(-115.000000, -94.000000)">
            <g id="ic_karma_simple" transform="translate(115.500000, 92.000000)">
                <g id="Group-2">
                    <rect id="Rectangle" x="0" y="0" width="24" height="24"></rect>
                    <path d="M3.02286414,9.65866778 C2.8769658,9.12971663 3.4584749,8.69441247 3.93889729,8.96814984 C5.31555236,9.75231478 7.48943764,12.0636461 8.75145829,12.8107639 C9.26418675,13.1133157 9.92698207,12.8735382 10.1187342,12.3137144 C10.5137018,11.1580488 11.1306434,9.36640684 11.4860101,8.40626787 C11.6902677,7.85158953 12.4906244,7.86908402 12.6688288,8.43302416 C12.9595833,9.34994143 13.5119127,11.1384961 13.8735322,12.3137144 C14.0517366,12.8930909 14.7301639,13.1483047 15.2543558,12.835462 C16.5330505,12.074966 18.7069358,9.75437295 20.0564955,8.96712075 C20.529623,8.69132521 21.1069635,9.10604761 20.9829499,9.63602785 C20.3191125,12.5061539 18.6569135,17.6876112 15.3335577,18.5798303 C11.8382503,19.1139269 11.4828837,19.1417123 8.38150179,18.646721 C7.73850695,18.5232305 7.14032375,18.2319986 6.59320497,17.7719964 C4.94142733,16.4218331 3.66898536,12.0121917 3.02286414,9.65866778 M23.4018544,4.81180743 C22.9178753,4.28303312 22.2249052,4.06102863 21.5459346,4.22450466 C20.9719594,4.36477113 16.9071349,7.95720732 16.3321597,8.23471292 C16.3241601,8.23874937 16.3171604,8.2417767 16.3101607,8.24581314 C16.025173,7.51218924 14.1992519,3.53830899 13.732272,2.84303131 C12.9903041,1.74915467 11.3403753,1.71686311 10.5454097,2.76331152 L10.4364144,2.91064177 C10.0574307,3.52720876 8.05751712,7.97436221 7.90652364,8.29929604 C7.17055542,8.03692711 3.43371681,4.39504447 2.26776717,4.22450466 C1.59479624,4.14175754 0.943824351,4.27496023 0.509843094,4.81180743 C0.11286024,5.3002173 -0.0641321163,5.88449273 0.0208642128,6.52326018 C0.38884832,9.49509292 1.50580008,17.4277168 4.84265596,20.2169004 C6.18759788,21.3491232 7.73353111,21.9222984 9.42245817,21.9222984 L9.42345812,21.9222984 L13.5492799,22 C17.4591111,21.945508 19.7370127,20.050397 21.5319352,16.1895372 C22.9038759,13.2550416 23.9348314,7.79070395 23.9968287,6.52326018 C24.0288273,5.8723834 23.8178364,5.26590751 23.4018544,4.81180743" id="Page-1-Copy" fill="#FFFFFF"></path>
                </g>
            </g>
        </g>
    </g>
</svg>