<?xml version="1.0" encoding="UTF-8"?>
<svg width="17px" height="14px" viewBox="0 0 17 14" version="1.1" xmlns="http://www.w3.org/2000/svg" xmlns:xlink="http://www.w3.org/1999/xlink">
    <!-- Generator: Sketch 59.1 (86144) - https://sketch.com -->
    <title>ic_karma_simple</title>
    <desc>Created with Sketch.</desc>
    <g id="flutter-earning" stroke="none" stroke-width="1" fill="none" fill-rule="evenodd">
        <g id="Artboard-Copy-19" transform="translate(-115.000000, -93.000000)">
            <g id="ic_karma_simple" transform="translate(115.500000, 92.000000)">
                <g id="Group-2">
                    <rect id="Rectangle" x="0" y="0" width="16" height="16"></rect>
                    <path d="M2.01524276,6.43911186 C1.9179772,6.08647775 2.30564993,5.79627498 2.62593153,5.97876656 C3.54370157,6.50154319 4.99295843,8.04243072 5.83430553,8.54050924 C6.1761245,8.74221046 6.61798805,8.58235881 6.74582279,8.20914295 C7.00913455,7.43869918 7.42042893,6.24427122 7.65734004,5.60417858 C7.79351183,5.23439302 8.3270829,5.24605601 8.44588584,5.62201611 C8.63972221,6.23329429 9.00794183,7.42566407 9.24902147,8.20914295 C9.3678244,8.59539392 9.82010926,8.76553645 10.1695705,8.55697464 C11.0220337,8.04997736 12.4712905,6.5029153 13.370997,5.9780805 C13.6864153,5.79421681 14.071309,6.07069841 13.9886333,6.42401857 C13.546075,8.3374359 12.4379424,11.7917408 10.2223718,12.3865535 C7.8921669,12.7426179 7.65525578,12.7611415 5.58766786,12.4311474 C5.15900464,12.3488203 4.76021584,12.1546658 4.39546998,11.8479976 C3.29428488,10.9478887 2.44599024,8.00812779 2.01524276,6.43911186 M15.6012363,3.20787162 C15.2785835,2.85535541 14.8166035,2.70735242 14.3639564,2.81633644 C13.9813062,2.90984742 11.2714233,5.30480488 10.8881065,5.48980861 C10.8827734,5.49249958 10.8781069,5.4945178 10.8734405,5.49720876 C10.6834487,5.00812616 9.46616791,2.35887266 9.15484802,1.89535421 C8.66020272,1.16610312 7.56025022,1.14457541 7.03027311,1.84220768 L6.95760958,1.94042784 C6.70495383,2.35147251 5.37167808,5.31624147 5.27101576,5.53286403 C4.78037028,5.35795141 2.28914454,2.93002965 1.51184478,2.81633644 C1.06319749,2.76117169 0.629216234,2.84997348 0.339895396,3.20787162 C0.0752401597,3.5334782 -0.0427547442,3.92299515 0.0139094752,4.34884012 C0.259232213,6.33006195 1.00386672,11.6184778 3.22843731,13.4779336 C4.12506525,14.2327488 5.15568741,14.6148656 6.28163878,14.6148656 L6.28230542,14.6148656 L9.03285329,14.6666667 C11.6394074,14.6303387 13.1580085,13.3669313 14.3546234,10.7930248 C15.2692506,8.83669439 15.9565543,5.19380264 15.9978858,4.34884012 C16.0192182,3.91492226 15.8785576,3.51060501 15.6012363,3.20787162" id="Page-1-Copy" fill="#FFFFFF"></path>
                </g>
            </g>
        </g>
    </g>
</svg>