<?xml version="1.0" encoding="UTF-8"?>
<svg width="512px" height="708px" viewBox="0 0 512 708" version="1.1" xmlns="http://www.w3.org/2000/svg" xmlns:xlink="http://www.w3.org/1999/xlink">
    <!-- Generator: Sketch 60.1 (88133) - https://sketch.com -->
    <title>light-bulb-3 copy</title>
    <desc>Created with Sketch.</desc>
    <g id="android-dev" stroke="none" stroke-width="1" fill="none" fill-rule="evenodd">
        <g id="light-bulb-3-copy" fill="#FFFFFF" fill-rule="nonzero">
            <path d="M256,0 C114.845257,0 0,114.845257 0,256 C0,355.118933 57.1547429,445.071543 146.285714,487.369143 L146.285714,560.761905 C146.285714,567.499886 151.73821,572.952381 158.47619,572.952381 L353.52381,572.952381 C360.26179,572.952381 365.714286,567.499886 365.714286,560.761905 L365.714286,487.369143 C454.845257,445.071543 512,355.119238 512,256 C512,114.845257 397.154743,0 256,0 Z M348.642743,468.357181 C344.202362,470.2976 341.333333,474.678552 341.333333,479.523962 L341.333333,548.571429 L170.666667,548.571429 L170.666667,479.523962 C170.666667,474.678857 167.797638,470.297905 163.357257,468.357181 C78.9284571,431.464229 24.3809524,348.119162 24.3809524,256 C24.3809524,128.285867 128.285867,24.3809524 256,24.3809524 C383.714133,24.3809524 487.619048,128.285867 487.619048,256 C487.619048,348.119162 433.071543,431.464229 348.642743,468.357181 Z" id="Shape"></path>
            <rect id="Rectangle" x="158.47619" y="585.142857" width="195.047619" height="24.3809524"></rect>
            <path d="M316.952381,621.714286 L195.047619,621.714286 C188.309638,621.714286 182.857143,627.166781 182.857143,633.904762 C182.857143,674.238171 215.66659,707.047619 256,707.047619 C296.33341,707.047619 329.142857,674.238171 329.142857,633.904762 C329.142857,627.166781 323.690362,621.714286 316.952381,621.714286 Z M256,682.666667 C233.321448,682.666667 214.202514,667.107048 208.785676,646.095238 L303.214324,646.095238 C297.797486,667.107048 278.678552,682.666667 256,682.666667 Z" id="Shape"></path>
            <path d="M307.190552,134.095238 C288.083505,134.095238 269.774019,140.166705 254.595352,151.357257 C239.428571,140.166705 221.119086,134.095238 202.012038,134.095238 C144.821638,134.095238 113.333333,165.583238 113.333333,222.773943 C113.333333,264.976457 162.416762,316.059733 191.66659,342.750171 C203.145752,353.22179 227.249371,374.217143 243.809524,382.485943 L243.809524,487.619048 L268.190476,487.619048 L268.190476,380.933181 C284.21059,371.892114 305.771581,353.143771 316.392838,343.512076 C346.071467,316.60739 395.868952,265.143162 395.868952,222.773943 C395.868952,165.583238 364.380952,134.095238 307.190552,134.095238 Z M254.523733,361.059657 C232.916724,349.833448 137.714286,268.892952 137.714286,222.773943 C137.714286,178.904686 158.142781,158.47619 202.012038,158.47619 C218.535924,158.47619 234.226286,164.726248 246.2144,176.0832 C250.90499,180.535467 258.261943,180.535467 262.976305,176.0832 C274.976305,164.726248 290.678552,158.47619 307.190552,158.47619 C351.059505,158.47619 371.488305,178.904686 371.488305,222.773943 C371.488305,269.380876 276.476343,349.571352 254.523733,361.059657 Z" id="Shape"></path>
        </g>
    </g>
</svg>