<svg height="512pt" viewBox="-60 0 512 512" width="512pt" xmlns="http://www.w3.org/2000/svg"><path d="m195.175781 50.90625c-79.859375.59375-144.714843 66.347656-144.269531 146.207031.277344 49.78125 25.574219 93.628907 63.953125 119.625 11.066406 7.496094 17.75 19.941407 17.75 33.308594v20.316406h127.351563v-20.3125c0-13.21875 6.433593-25.695312 17.398437-33.078125 38.789063-26.105468 64.308594-70.414062 64.308594-120.6875 0-80.664062-65.6875-145.980468-146.492188-145.378906zm0 0" fill="#feca57"/><path d="m145.429688 316.738281c-38.378907-25.996093-63.679688-69.84375-63.957032-119.625-.417968-75.082031 56.886719-137.683593 130.109375-145.40625-5.386719-.5625-10.859375-.84375-16.40625-.800781-79.859375.59375-144.714843 66.347656-144.269531 146.207031.277344 49.78125 25.574219 93.628907 63.953125 119.625 11.070313 7.496094 17.75 19.941407 17.75 33.308594v20.316406h30.570313v-20.316406c0-13.367187-6.683594-25.8125-17.75-33.308594zm0 0" fill="#f4b537"/><path d="m196.285156 372.910156c-4.21875 0-7.640625-3.421875-7.640625-7.640625v-106.699219c0-4.21875 3.421875-7.640624 7.640625-7.640624 4.222656 0 7.644532 3.421874 7.644532 7.640624v106.699219c0 4.21875-3.421876 7.640625-7.644532 7.640625zm0 0" fill="#f4b537"/><path d="m224.390625 232.609375h-56.210937c-6.527344 0-11.871094 5.34375-11.871094 11.875v2.214844c0 6.527343 5.34375 11.871093 11.871094 11.871093h56.210937c6.527344 0 11.871094-5.34375 11.871094-11.871093v-2.214844c0-6.53125-5.339844-11.875-11.871094-11.875zm0 0" fill="#f4b537"/><path d="m224.390625 241.417969h-56.207031c-3.707032 0-7.027344-1.722657-9.207032-4.402344-1.664062 2.042969-2.667968 4.644531-2.667968 7.46875v2.214844c0 6.53125 5.34375 11.871093 11.875 11.871093h56.207031c6.527344 0 11.871094-5.339843 11.871094-11.871093v-2.214844c0-2.824219-1.003907-5.425781-2.664063-7.46875-2.183594 2.679687-5.503906 4.402344-9.207031 4.402344zm0 0" fill="#e59d1f"/><g fill="#fcd486"><path d="m384.929688 203.929688h-21.628907c-4.222656 0-7.644531-3.421876-7.644531-7.644532 0-4.21875 3.421875-7.640625 7.644531-7.640625h21.628907c4.222656 0 7.644531 3.421875 7.644531 7.640625 0 4.222656-3.421875 7.644532-7.644531 7.644532zm0 0"/><path d="m29.273438 203.929688h-21.632813c-4.21875 0-7.640625-3.421876-7.640625-7.644532 0-4.21875 3.421875-7.640625 7.640625-7.640625h21.632813c4.21875 0 7.640624 3.421875 7.640624 7.640625 0 4.222656-3.421874 7.644532-7.640624 7.644532zm0 0"/><path d="m314.382812 85.832031c-1.957031 0-3.914062-.746093-5.402343-2.238281-2.988281-2.984375-2.988281-7.824219 0-10.808594l15.292969-15.292968c2.984374-2.984376 7.824218-2.988282 10.808593 0 2.984375 2.984374 2.984375 7.820312 0 10.804687l-15.296875 15.296875c-1.488281 1.492188-3.445312 2.238281-5.402344 2.238281zm0 0"/><path d="m62.894531 337.320312c-1.957031 0-3.910156-.746093-5.402343-2.238281-2.988282-2.984375-2.988282-7.824219 0-10.808593l15.292968-15.292969c2.984375-2.984375 7.824219-2.984375 10.808594 0s2.984375 7.824219 0 10.804687l-15.296875 15.296875c-1.492187 1.492188-3.445313 2.238281-5.402344 2.238281zm0 0"/><path d="m196.285156 36.914062c-4.21875 0-7.640625-3.421874-7.640625-7.640624v-21.632813c0-4.21875 3.421875-7.640625 7.640625-7.640625 4.222656 0 7.644532 3.421875 7.644532 7.640625v21.632813c0 4.21875-3.421876 7.640624-7.644532 7.640624zm0 0"/><path d="m78.1875 85.832031c-1.953125 0-3.910156-.746093-5.402344-2.238281l-15.296875-15.296875c-2.984375-2.984375-2.984375-7.820313 0-10.804687 2.984375-2.984376 7.824219-2.984376 10.808594 0l15.296875 15.292968c2.984375 2.984375 2.984375 7.824219 0 10.808594-1.492188 1.492188-3.449219 2.238281-5.40625 2.238281zm0 0"/><path d="m329.675781 337.320312c-1.953125 0-3.910156-.746093-5.402343-2.238281l-15.292969-15.296875c-2.988281-2.980468-2.988281-7.820312 0-10.804687 2.980469-2.984375 7.820312-2.984375 10.804687 0l15.296875 15.292969c2.984375 2.984374 2.984375 7.824218 0 10.808593-1.492187 1.492188-3.449219 2.238281-5.40625 2.238281zm0 0"/></g><path d="m196.285156 512c14.957032 0 27.082032-12.675781 27.082032-28.316406h-54.164063c0 15.640625 12.125 28.316406 27.082031 28.316406zm0 0" fill="#576574"/><path d="m199.773438 483.683594h-30.570313c0 15.640625 12.125 28.316406 27.082031 28.316406 5.671875 0 10.933594-1.824219 15.285156-4.941406-7.121093-5.101563-11.796874-13.664063-11.796874-23.375zm0 0" fill="#3e4b5a"/><path d="m266.773438 473.046875v-16.820313c0-6.527343-5.339844-11.871093-11.871094-11.871093h-117.234375c-6.527344 0-11.871094 5.34375-11.871094 11.871093v16.820313c0 6.527344 5.34375 11.871094 11.871094 11.871094h117.234375c6.53125 0 11.871094-5.34375 11.871094-11.871094zm0 0" fill="#54a0ff"/><path d="m254.902344 460.207031h-117.234375c-5.144531 0-9.539063-3.324219-11.179688-7.925781-.4375 1.238281-.691406 2.5625-.691406 3.945312v16.820313c0 6.527344 5.34375 11.871094 11.871094 11.871094h117.234375c6.53125 0 11.875-5.34375 11.875-11.871094v-16.820313c0-1.382812-.253906-2.707031-.695313-3.945312-1.636719 4.601562-6.03125 7.925781-11.179687 7.925781zm0 0" fill="#338def"/><path d="m270.484375 404.8125h-148.398437c-6.527344 0-11.871094 5.34375-11.871094 11.871094v16.820312c0 6.527344 5.34375 11.871094 11.871094 11.871094h148.398437c6.527344 0 11.871094-5.34375 11.871094-11.871094v-16.820312c0-6.527344-5.339844-11.871094-11.871094-11.871094zm0 0" fill="#e4eaf8"/><path d="m270.484375 420.664062h-148.398437c-5.144532 0-9.539063-3.324218-11.175782-7.925781-.441406 1.238281-.695312 2.5625-.695312 3.945313v16.820312c0 6.527344 5.34375 11.871094 11.871094 11.871094h148.398437c6.53125 0 11.875-5.34375 11.875-11.871094v-16.820312c0-1.382813-.253906-2.707032-.695313-3.945313-1.636718 4.601563-6.03125 7.925781-11.179687 7.925781zm0 0" fill="#c7d2e5"/><path d="m270.484375 365.269531h-148.398437c-6.527344 0-11.871094 5.34375-11.871094 11.871094v16.820313c0 6.527343 5.34375 11.871093 11.871094 11.871093h148.398437c6.527344 0 11.871094-5.34375 11.871094-11.871093v-16.820313c0-6.527344-5.339844-11.871094-11.871094-11.871094zm0 0" fill="#c7d2e5"/><path d="m270.484375 381.121094h-148.398437c-5.144532 0-9.539063-3.324219-11.175782-7.925782-.441406 1.238282-.695312 2.5625-.695312 3.945313v16.820313c0 6.527343 5.34375 11.871093 11.871094 11.871093h148.398437c6.53125 0 11.875-5.34375 11.875-11.871093v-16.820313c0-1.382813-.253906-2.707031-.695313-3.945313-1.636718 4.601563-6.03125 7.925782-11.179687 7.925782zm0 0" fill="#bac7db"/></svg>