<?xml version="1.0" encoding="UTF-8"?>
<svg width="150px" height="150px" viewBox="0 0 150 150" version="1.1" xmlns="http://www.w3.org/2000/svg" xmlns:xlink="http://www.w3.org/1999/xlink">
    <!-- Generator: Sketch 60.1 (88133) - https://sketch.com -->
    <title>Page 1</title>
    <desc>Created with Sketch.</desc>
    <defs>
        <polygon id="path-1" points="0 0.00015 0 150 149.99985 150 149.99985 0.00015"></polygon>
    </defs>
    <g id="android-dev" stroke="none" stroke-width="1" fill="none" fill-rule="evenodd">
        <g id="multiacc-ok-copy-21" transform="translate(-105.000000, -120.000000)">
            <g id="Page-1" transform="translate(105.000000, 120.000000)">
                <g id="Group-3">
                    <mask id="mask-2" fill="white">
                        <use xlink:href="#path-1"></use>
                    </mask>
                    <g id="Clip-2"></g>
                    <path d="M149.99985,75.00015 C149.99985,116.42115 116.4216,150.00015 74.99985,150.00015 C33.5781,150.00015 -0.00015,116.42115 -0.00015,75.00015 C-0.00015,33.5784 33.5781,0.00015 74.99985,0.00015 C116.4216,0.00015 149.99985,33.5784 149.99985,75.00015" id="Fill-1" fill="#FFA03F" mask="url(#mask-2)"></path>
                </g>
                <path d="M118.309425,125.62335 C118.309425,130.8606 98.921925,136.6206 75.006675,136.6206 C51.091425,136.6206 31.703175,130.8606 31.703175,125.62335 C31.703175,120.3861 51.091425,116.44335 75.006675,116.44335 C98.921925,116.44335 118.309425,120.3861 118.309425,125.62335" id="Fill-4" fill="#DB7002"></path>
                <polygon id="Fill-6" fill="#936824" points="75.6297 104.579025 75.2667 77.956275 41.0562 89.561775 42.1632 114.437775"></polygon>
                <polygon id="Fill-8" fill="#936824" points="110.022075 114.45795 109.319325 90.53895 75.266325 77.95695 75.630075 104.57895"></polygon>
                <polygon id="Fill-10" fill="#BF8C4F" points="109.31895 90.53925 75.2667 77.9565 91.9602 78.1725 124.60545 88.302"></polygon>
                <polygon id="Fill-12" fill="#DBA25A" points="41.0565 89.561775 75.26625 77.956275 56.53125 77.807025 25.395 88.460025"></polygon>
                <path d="M85.48665,59.637225 C85.4199,52.450725 78.98865,51.412725 78.72615,53.820225 C78.36915,57.121725 79.5519,57.276225 80.32815,59.304225 C80.8389,60.637725 81.32415,62.688975 76.86315,63.427725 C72.4179,64.164225 65.1489,62.493225 65.18265,59.801475 C65.20965,57.611475 68.3754,55.364475 66.42615,53.299725 C63.5424,50.241975 60.03765,56.586225 60.94215,60.933975 C61.69515,64.551975 68.43915,65.976225 68.43915,65.976225 C66.13515,66.623475 63.5199,65.920725 61.33515,65.049975 C54.7794,62.438475 53.87265,58.506975 52.2219,60.363225 C48.67515,64.358475 55.7319,68.337225 60.54465,68.787225 C63.9114,69.103725 66.9099,68.544225 66.9099,68.544225 C65.1999,69.448725 63.41715,69.685725 61.65465,69.865725 C55.82415,70.461225 53.6289,66.675975 52.21815,68.410725 C49.75515,71.434725 54.5994,73.914975 61.98165,72.411975 C65.48115,71.698725 67.95765,70.635975 67.95765,70.635975 C66.86715,71.844225 65.7879,72.151725 64.53615,72.609975 C60.41715,74.120475 56.63115,72.574725 57.25215,75.678975 C57.71265,77.976975 62.73615,76.781475 66.4734,74.826975 C69.67965,73.150725 69.1944,72.762225 69.1944,72.762225 L69.11115,89.643975 L78.72315,88.818975 L78.24915,67.560225 C82.43565,65.984475 85.53165,64.463475 85.48665,59.637225" id="Fill-14" fill="#FDD0A7"></path>
                <polygon id="Fill-16" fill="#F5F0E1" points="67.86825 75.9651 79.398 75.99735 79.38375 79.4271 67.884 79.4796"></polygon>
                <polygon id="Fill-18" fill="#231F20" points="67.303575 78.07815 80.060325 77.82765 80.891325 114.7224 66.869325 114.81465"></polygon>
                <path d="M78.714675,81.114075 C79.174425,80.802825 79.294425,80.178075 78.983925,79.718325 C78.672675,79.258575 78.047925,79.138575 77.588925,79.449075 C77.129175,79.760325 77.008425,80.385075 77.319675,80.844825 C77.630925,81.304575 78.255675,81.425325 78.714675,81.114075" id="Fill-20" fill="#58595B"></path>
                <path d="M78.825975,84.43965 C79.285725,84.1284 79.406475,83.50365 79.095225,83.0439 C78.783975,82.58415 78.159225,82.46415 77.700225,82.77465 C77.240475,83.0859 77.120475,83.71065 77.430975,84.1704 C77.742225,84.63015 78.366975,84.7509 78.825975,84.43965" id="Fill-22" fill="#58595B"></path>
                <path d="M78.93735,87.76515 C79.3971,87.4539 79.51785,86.82915 79.2066,86.3694 C78.89535,85.90965 78.2706,85.78965 77.8116,86.10015 C77.35185,86.4114 77.23185,87.03615 77.54235,87.4959 C77.8536,87.95565 78.47835,88.0764 78.93735,87.76515" id="Fill-24" fill="#58595B"></path>
                <path d="M68.10555,50.7138 C67.27155,43.2573 57.59355,39.5223 62.76555,29.48205 C66.25305,22.7163 80.4753,20.54655 83.62755,32.4198 C86.05305,41.5518 78.8988,42.83505 77.8458,50.86755 L68.10555,50.7138 Z" id="Fill-26" fill="#FCCF5B"></path>
                <path d="M70.78035,50.756625 C70.6626,50.284875 70.6161,49.765875 70.5321,49.311375 C70.31685,48.147375 70.0401,46.999125 69.83985,45.832875 C69.39585,43.243875 68.8836,40.675875 68.7426,38.045625 C68.6451,36.222375 68.51235,34.407375 69.2091,32.680875 C69.58635,31.747125 70.1106,32.970375 70.24785,33.339375 C70.4676,33.931875 70.64985,34.519875 70.7871,35.135625 C70.9446,35.847375 71.0241,36.574875 71.1141,37.300125 C71.1096,37.699125 71.15685,38.086125 71.27835,38.443875 C71.27985,38.447625 71.27985,38.450625 71.27985,38.454375 C71.28135,38.454375 71.28135,38.453625 71.28285,38.453625 C71.2926,38.485125 71.3016,38.516625 71.3136,38.546625 C71.47485,38.962875 72.0936,38.698875 72.02235,38.293125 C71.94435,37.861125 71.88435,37.425375 71.82435,36.991125 C71.87085,35.698125 72.4401,34.144125 72.9066,33.234375 C73.4751,32.126625 73.7916,34.593375 73.8351,34.930875 C73.87185,35.207625 73.89885,35.494875 73.9206,35.785875 C73.8186,36.394875 73.7961,37.007625 73.98585,37.510875 C74.1261,37.878375 74.68335,37.711125 74.7021,37.359375 C74.7156,37.130625 74.73285,36.721875 74.7306,36.227625 C74.7546,36.130125 74.77485,36.030375 74.7816,35.928375 C74.8221,35.278125 74.95485,34.672875 75.1236,34.047375 C75.27135,33.497625 75.4311,32.950875 75.63585,32.419875 C75.9231,31.675875 76.32735,31.947375 76.4091,32.657625 C76.4826,33.309375 76.5621,33.931125 76.5426,34.589625 C76.50735,35.778375 76.3251,36.994875 76.19985,38.178375 C75.9381,40.646625 75.70935,43.120875 75.49935,45.594375 C75.3531,47.343375 75.06135,49.076625 74.8386,50.820375 L70.78035,50.756625 Z M77.7936,55.337625 C77.7936,55.337625 79.2756,54.103875 77.83035,53.287875 C77.83035,53.287875 79.52985,51.855375 77.8461,50.867625 L75.56385,50.832375 C75.83685,48.233625 76.2366,45.641625 76.5051,43.048125 C76.6701,41.440875 76.8051,39.828375 76.95585,38.219625 C77.1081,36.631875 77.3871,35.010375 77.27535,33.414375 C77.21685,32.574375 77.20785,31.465125 76.41285,30.970875 C75.87285,30.634875 75.3891,31.259625 75.1581,31.660125 C74.8386,32.215125 74.64885,32.857875 74.4831,33.492375 C74.2581,32.493375 73.8426,31.750125 73.08435,31.924875 C72.1611,32.135625 71.74485,34.053375 71.5551,34.773375 C71.5386,34.834125 71.5236,34.897125 71.5056,34.960125 C71.4276,34.574625 71.3346,34.192875 71.2146,33.814125 C70.94385,32.962125 70.7031,31.810875 69.79635,31.447875 C68.4036,30.889125 67.9716,34.246125 67.91535,34.936875 C67.65735,38.161875 68.2956,41.546625 68.90085,44.696625 C69.20535,46.285125 69.4956,47.881125 69.79185,49.471125 C69.8526,49.803375 69.89085,50.272125 69.9681,50.742375 L68.10585,50.713875 C68.10585,50.713875 66.2826,51.464625 67.9611,53.160375 C67.9611,53.160375 66.23985,54.007125 67.85535,55.300875 C67.85535,55.300875 66.30285,56.307375 68.0241,57.245625 L69.9471,57.356625 L71.4441,59.127375 L73.9686,59.264625 L75.57885,57.580125 L77.46585,57.504375 C77.46585,57.504375 79.5996,56.530125 77.7936,55.337625 L77.7936,55.337625 Z" id="Fill-28" fill="#231F20"></path>
                <polygon id="Fill-36" fill="#DBA25A" points="41.0565 89.561775 74.181 101.926275 74.03775 134.816025 42.1635 123.577275"></polygon>
                <polygon id="Fill-38" fill="#BF8C4F" points="109.31895 90.53925 110.30745 123.5985 74.03745 134.81625 74.1807 101.9265"></polygon>
                <polygon id="Fill-40" fill="#996B3D" points="74.181 101.9262 81.5625 116.6052 118.3095 101.7357 109.3305 90.5337"></polygon>
                <polygon id="Fill-42" fill="#E3A75D" points="74.181 101.9262 85.2885 116.5692 122.03475 101.69895 109.3305 90.5337"></polygon>
                <polygon id="Fill-44" fill="#996B3D" points="74.181 101.9262 41.0565 89.5617 34.18275 103.08345 66.47775 116.5572"></polygon>
                <polygon id="Fill-46" fill="#C99353" points="74.181 101.9262 41.0565 89.5617 29.50875 103.13145 61.80375 116.6052"></polygon>
                <path d="M85.883625,26.54715 C86.399625,26.3019 86.946375,25.86465 87.370125,25.48515 C88.123875,24.81165 88.711875,24.0129 89.225625,23.1564 C89.351625,22.94415 89.134125,22.5999 88.876875,22.70865 C87.856875,23.14215 87.099375,23.64765 86.394375,24.52215 C86.008125,25.0014 85.138875,25.45215 85.242375,26.18415 C85.288125,26.5149 85.569375,26.69565 85.883625,26.54715" id="Fill-48" fill="#FCCF5B"></path>
                <path d="M61.376775,26.39295 C61.335525,25.53495 60.604275,24.9162 60.097275,24.28545 C59.842275,23.9667 59.555025,23.6742 59.293275,23.3637 C59.001525,23.02095 58.750275,22.6497 58.400775,22.3647 C58.146525,22.15845 57.634275,22.1832 57.575025,22.58895 C57.434025,23.53695 58.119525,24.2082 58.726275,24.8427 C59.357025,25.5027 59.984775,26.29695 60.800025,26.72895 C61.046775,26.8587 61.392525,26.69595 61.376775,26.39295" id="Fill-50" fill="#FCCF5B"></path>
                <path d="M61.96125,18.000525 C61.83675,18.872775 62.32125,19.699275 62.709,20.449275 C63.1575,21.320775 63.7245,22.040025 64.39575,22.746525 C64.569,22.928025 64.89675,22.788525 64.887,22.539525 C64.854,21.619275 64.557,20.843775 64.113,20.047275 C63.70575,19.318275 63.33975,18.385275 62.7555,17.785275 C62.52675,17.550525 62.01225,17.639025 61.96125,18.000525" id="Fill-52" fill="#FCCF5B"></path>
                <path d="M78.335325,21.564525 C78.594825,21.318525 78.754575,20.907525 78.903075,20.588775 C79.125825,20.114025 79.323075,19.640775 79.505325,19.148775 C79.701825,18.614025 79.908075,18.082275 80.076075,17.537025 C80.241075,17.004525 80.490825,16.415025 80.438325,15.847275 C80.423325,15.694275 80.274075,15.596025 80.131575,15.674025 C79.670325,15.927525 79.309575,16.461525 79.068075,16.916775 C78.743325,17.532525 78.462075,18.149025 78.242325,18.810525 C78.015825,19.493775 77.311575,20.959275 78.001575,21.566025 C78.101325,21.653025 78.237825,21.656775 78.335325,21.564525" id="Fill-54" fill="#FCCF5B"></path>
                <path d="M82.67415,23.29995 C82.54965,23.4282 82.77765,23.1867 82.7814,23.1777 C82.80015,23.13195 82.8234,23.0907 82.84815,23.0487 C82.93665,22.90845 83.02365,22.76895 83.11965,22.62345 C83.37465,22.2357 83.65515,21.86445 83.93565,21.49545 C84.48015,20.78295 85.11765,20.0967 85.42365,19.27995 C85.5849,18.85095 85.05915,18.5997 84.72915,18.75345 C83.86365,19.1577 83.19165,20.14095 82.66515,20.9562 C82.3869,21.38745 81.3744,22.99395 82.24665,23.35845 C82.39515,23.41995 82.5534,23.42445 82.67415,23.29995" id="Fill-56" fill="#FCCF5B"></path>
                <path d="M73.9605,20.220525 C74.25825,19.951275 74.322,19.440525 74.42775,19.070775 C74.60025,18.459525 74.64825,17.809275 74.71425,17.179275 C74.784,16.517775 74.76075,15.845025 74.70825,15.182775 C74.66475,14.609775 74.58375,13.957275 74.23575,13.481775 C74.13675,13.345275 73.9635,13.345275 73.86525,13.484025 C73.52175,13.975275 73.4985,14.612025 73.458,15.191775 C73.41225,15.854025 73.4205,16.523775 73.3995,17.187525 C73.3785,17.831025 73.3275,18.472275 73.30425,19.115775 C73.2885,19.517775 73.3125,20.011275 73.66725,20.260275 C73.7595,20.324025 73.884,20.288775 73.9605,20.220525" id="Fill-58" fill="#FCCF5B"></path>
                <path d="M69.13605,20.942325 C69.13455,20.959575 69.1308,20.976825 69.1293,20.994825 C69.11655,21.1043711 69.2553,21.121575 69.3198,21.072075 C69.94305,20.580075 69.40155,19.257825 69.23955,18.661575 C69.0093,17.817825 68.7738,16.563075 68.0433,15.996825 C67.8858,15.875325 67.6383,15.902325 67.5813,16.123575 C67.33005,17.091075 67.6023,18.116325 67.92405,19.034325 C68.1153,19.575825 68.4933,21.114075 69.24105,21.1043711 C69.24105,21.030825 69.24105,20.956575 69.2403,20.883825 C69.22155,20.886075 69.20505,20.889075 69.1878,20.891325 C69.1563,20.895825 69.14055,20.910825 69.13605,20.942325" id="Fill-60" fill="#FCCF5B"></path>
            </g>
        </g>
    </g>
</svg>